<?xml version="1.0" encoding="UTF-8"?>
<svg xmlns="http://www.w3.org/2000/svg" version="1.1" xmlns:xlink="http://www.w3.org/1999/xlink" xmlns:xodm="http://www.corel.com/coreldraw/odm/2003" viewBox="0 0 36.3 33.4">
  <defs>
    <linearGradient id="linear-gradient" x1="-827.6" y1="492.8" x2="-828.9" y2="496.4" gradientTransform="translate(7068.8 4227.7) scale(8.5 -8.5)" gradientUnits="userSpaceOnUse">
      <stop offset="0" stop-color="#0048ff"/>
      <stop offset="1" stop-color="#6bb0ff"/>
    </linearGradient>
  </defs>
  <!-- Generator: Adobe Illustrator 28.7.1, SVG Export Plug-In . SVG Version: 1.2.0 Build 142)  -->
  <g>
    <g id="Layer_1" display="none">
      <g id="Layer_x5F_1">
        <path d="M10,33.4H1.6c-.9,0-1.5-.8-1.5-1.6v-5.8c0-.9.7-1.6,1.5-1.6h16.6c0-5,3.7-9,8.2-9h8.3c.9,0,1.5.8,1.5,1.6v5.8c0,.9-.7,1.6-1.5,1.6h-16.5c0,5-3.7,9-8.2,9h0ZM27.9,0h6.7c.9,0,1.5.8,1.5,1.6v5.8c0,.9-.7,1.6-1.5,1.6h-16.5c0,5-3.7,9-8.2,9H1.5C.7,18,0,17.3,0,16.4v-5.8C0,9.7.7,9,1.5,9h16.6C18.1,4,21.8,0,26.3,0h1.6ZM27.9,24.3h6.7M27.9,9h6.7" fill="url(#linear-gradient)" fill-rule="evenodd"/>
      </g>
    </g>
    <g id="Layer_2">
      <g>
        <path d="M32.3,16.7c0,6.4-5.2,11.6-11.6,11.6v-5c3.6,0,6.6-2.9,6.6-6.6s-2.9-6.6-6.6-6.6v-5c6.4,0,11.6,5.2,11.6,11.6Z" fill="#c06"/>
        <path d="M22.2,16.7c0,.9-.7,1.5-1.5,1.5v-3.1c.9,0,1.5.7,1.5,1.5Z" fill="#c06"/>
        <path d="M9,16.7c0,6.4,5.2,11.6,11.6,11.6v5c-9.2,0-16.7-7.5-16.7-16.7S11.5,0,20.6,0v5c-6.4,0-11.6,5.2-11.6,11.6Z" fill="#c06"/>
        <path d="M19.1,16.7c0,.9.7,1.5,1.5,1.5v5c-3.6,0-6.6-2.9-6.6-6.6s2.9-6.6,6.6-6.6v5c-.9,0-1.5.7-1.5,1.5Z" fill="#c06"/>
      </g>
    </g>
  </g>
</svg>