<?xml version="1.0" encoding="UTF-8"?>
<svg xmlns="http://www.w3.org/2000/svg" version="1.1" xmlns:xlink="http://www.w3.org/1999/xlink" xmlns:xodm="http://www.corel.com/coreldraw/odm/2003" viewBox="0 0 151.4 30.5">
  <defs>
    <style>
      .cls-1 {
        fill: #cff;
      }

      .cls-2 {
        display: none;
      }

      .cls-3 {
        fill: #c06;
      }

      .cls-4 {
        fill: url(#linear-gradient);
        fill-rule: evenodd;
      }
    </style>
    <linearGradient id="linear-gradient" x1="-1607.8" y1="124.7" x2="-1609" y2="121.4" gradientTransform="translate(13691.3 -1022.3) scale(8.5)" gradientUnits="userSpaceOnUse">
      <stop offset="0" stop-color="#0048ff"/>
      <stop offset="1" stop-color="#6bb0ff"/>
    </linearGradient>
  </defs>
  <!-- Generator: Adobe Illustrator 28.7.1, SVG Export Plug-In . SVG Version: 1.2.0 Build 142)  -->
  <g>
    <g id="Layer_2">
      <g>
        <g id="Layer_1-2" data-name="Layer_1" class="cls-2">
          <g id="Layer_x5F_1">
            <path class="cls-4" d="M9.1,30.5H1.5c-.8,0-1.4-.7-1.4-1.5v-5.3c0-.8.6-1.5,1.4-1.5h15.2c0-4.6,3.4-8.2,7.5-8.2h7.6c.8,0,1.4.7,1.4,1.5v5.3c0,.8-.6,1.5-1.4,1.5h-15.1c0,4.6-3.4,8.2-7.5,8.2h0ZM25.5,0h6.1c.8,0,1.4.7,1.4,1.5v5.3c0,.8-.6,1.5-1.4,1.5h-15.1c0,4.6-3.4,8.2-7.5,8.2H1.4c-.7,0-1.4-.6-1.4-1.5v-5.3c0-.8.6-1.5,1.4-1.5h15.2c0-4.6,3.4-8.2,7.5-8.2h1.5ZM25.5,22.2h6.1M25.5,8.2h6.1"/>
          </g>
        </g>
        <g id="Layer_2-2" data-name="Layer_2">
          <g>
            <path class="cls-3" d="M29.5,15.3c0,5.9-4.8,10.6-10.6,10.6v-4.6c3.3,0,6-2.7,6-6s-2.7-6-6-6v-4.6c5.9,0,10.6,4.8,10.6,10.6Z"/>
            <path class="cls-3" d="M20.3,15.3c0,.8-.6,1.4-1.4,1.4v-2.8c.8,0,1.4.6,1.4,1.4h0Z"/>
            <path class="cls-3" d="M8.2,15.3c0,5.9,4.8,10.6,10.6,10.6v4.6c-8.4,0-15.3-6.9-15.3-15.3S10.5,0,18.8,0v4.6c-5.9,0-10.6,4.8-10.6,10.6h0Z"/>
            <path class="cls-3" d="M17.5,15.3c0,.8.6,1.4,1.4,1.4v4.6c-3.3,0-6-2.7-6-6s2.7-6,6-6v4.6c-.8,0-1.4.6-1.4,1.4v.2Z"/>
          </g>
        </g>
      </g>
      <g>
        <path class="cls-1" d="M44.8,20.5h-3.1l-2.4-4.4h-2.2v4.4h-2.7v-12.1h5.6c2.6,0,4.3,1.9,4.3,3.9s-.9,3.1-2.3,3.6l2.9,4.6ZM40.3,13.8c.9,0,1.7-.6,1.7-1.5s-.8-1.6-1.7-1.6h-3.1v3.1h3.1Z"/>
        <path class="cls-1" d="M54.3,8.3v2.4h-6.1v2.2h5v2.4h-5s0,2.7,0,2.7h6.1v2.4h-8.7v-12.1h8.7Z"/>
        <path class="cls-1" d="M58.2,20.5h-2.5v-12.1h2.5v12.1Z"/>
        <path class="cls-1" d="M70.5,8.3v12.1h-2.5l-5.9-8.3v8.3h-2.6v-12.1h2.5l6,8.2v-8.2h2.5Z"/>
        <path class="cls-1" d="M81.5,16.6c0,2.4-1.8,4.1-5.3,4.1s-4.7-1.7-4.7-3.9v-.2h2.9v.2c0,1,1.1,1.4,2.2,1.4s2.1-.3,2.1-1.4-1.3-1.2-2.8-1.6c-1.9-.5-4.3-1-4.3-3.3s2-3.9,5-3.9,4.7,1.6,4.7,3.9v.2h-2.7v-.2c0-.9-1.2-1.5-2.4-1.5s-1.9.4-1.9,1.2,1.2,1.1,2.7,1.4c1.9.4,4.4,1,4.4,3.4Z"/>
        <path class="cls-1" d="M93.1,8.3v2.4h-4.2v9.7h-2.7v-9.7h-4.2v-2.4h11.2Z"/>
        <path class="cls-1" d="M104.3,20.5h-3.1l-2.4-4.4h-2.2v4.4h-2.7v-12.1h5.6c2.6,0,4.3,1.9,4.3,3.9s-.9,3.1-2.3,3.6l2.9,4.6ZM99.7,13.8c.9,0,1.7-.6,1.7-1.5s-.8-1.6-1.7-1.6h-3.1v3.1h3.1Z"/>
        <path class="cls-1" d="M113.8,8.3v2.4h-6.1v2.2h5v2.4h-5s0,2.7,0,2.7h6.1v2.4h-8.7v-12.1h8.7Z"/>
        <path class="cls-1" d="M121.8,18h-4.5l-.9,2.5h-2.6l4.5-12.1h2.8l4.2,12.1h-2.6l-.9-2.5ZM121,15.7l-1.4-3.7-1.4,3.7h2.8Z"/>
        <path class="cls-1" d="M138,8.3v12.1h-2.6v-7l-2.7,7h-2l-2.7-7v7h-2.6v-12.1h2.8l3.5,9.6,3.5-9.6h2.8Z"/>
      </g>
      <g>
        <path class="cls-1" d="M114.2,22.6c.7,0,1.3.6,1.3,1.2s-.3.8-.5.8c.4,0,.8.4.8.9s-.4,1.1-1.2,1.1h-2.1v-4.1h1.7ZM113.4,24.3h.9c.2,0,.4-.2.4-.4s-.2-.4-.4-.4h-.9v.8ZM114.9,25.5c0-.2-.2-.4-.4-.4h-1.1v.8h1.1c.2,0,.4-.2.4-.4Z"/>
        <path class="cls-1" d="M119,22.6l-1.4,2.4v1.6h-.9v-1.6l-1.4-2.4h1l.8,1.6.8-1.6h1Z"/>
        <path class="cls-1" d="M121.7,26.7h-.8v-4.1h.8v4.1Z"/>
        <path class="cls-1" d="M123.8,22.6c.7,0,1.3.6,1.3,1.2s-.3.8-.5.8c.4,0,.8.4.8.9s-.4,1.1-1.2,1.1h-2.1v-4.1h1.7ZM123.1,24.3h.9c.2,0,.4-.2.4-.4s-.2-.4-.4-.4h-.9v.8ZM124.6,25.5c0-.2-.2-.4-.4-.4h-1.1v.8h1.1c.2,0,.4-.2.4-.4Z"/>
        <path class="cls-1" d="M129.4,25.1c-.2,1.1-1,1.7-1.9,1.7s-1.9-.7-1.9-2.1.9-2.1,1.9-2.1,1.7.6,1.9,1.6h-.9c-.1-.5-.5-.8-1-.8s-1.1.4-1.1,1.3.5,1.3,1.1,1.3.9-.3,1-.9h.9Z"/>
        <path class="cls-1" d="M131.4,22.6c.7,0,1.3.6,1.3,1.2s-.3.8-.5.8c.4,0,.8.4.8.9s-.4,1.1-1.2,1.1h-2.1v-4.1h1.7ZM130.6,24.3h.9c.2,0,.4-.2.4-.4s-.2-.4-.4-.4h-.9v.8ZM132.1,25.5c0-.2-.2-.4-.4-.4h-1.1v.8h1.1c.2,0,.4-.2.4-.4Z"/>
        <path class="cls-1" d="M134.1,26.7h-.8v-4.1h.8v4.1Z"/>
        <path class="cls-1" d="M135.4,25.9h2.4v.8h-3.4v-.8l2.3-2.4h-2.3v-.8h3.4v.8l-2.4,2.4Z"/>
      </g>
    </g>
  </g>
</svg>